<svg width="41" height="48" viewBox="0 0 41 48" fill="none" xmlns="http://www.w3.org/2000/svg">
<path fill-rule="evenodd" clip-rule="evenodd" d="M0.00849051 0.184494C-0.0328446 -0.0251211 0.0847267 -0.00709659 0.18876 0.00885247C0.215407 0.0129376 0.241165 0.0168866 0.263138 0.0168392C1.5546 0.0134119 2.84599 0.0135794 4.13744 0.0137468C4.41617 0.013783 4.69492 0.0138191 4.97366 0.0138191H7.73212C7.76799 0.0722615 7.80167 0.132593 7.83535 0.192923C7.90908 0.32501 7.98285 0.457174 8.07956 0.569383C8.31934 0.847257 8.56514 1.11998 8.81092 1.39268C9.09647 1.70952 9.382 2.02633 9.65805 2.35116C9.98076 2.73111 10.2961 3.11734 10.6114 3.50353C10.9595 3.92983 11.3077 4.35624 11.6655 4.77396C12.2917 5.50483 12.9402 6.21669 13.591 6.92532C14.1718 7.55797 14.7613 8.18268 15.3507 8.80736C15.4806 8.94505 15.6105 9.08274 15.7404 9.22052C15.8929 9.38239 15.9834 9.51486 15.7416 9.69364C15.6515 9.76014 15.5873 9.86224 15.5231 9.9643C15.4941 10.0104 15.4651 10.0566 15.4337 10.0994C15.9412 10.0026 16.3934 9.85158 16.8274 9.65914C17.2108 9.48915 17.5882 9.29532 17.9398 9.06744C18.0286 9.00998 18.0946 8.91653 18.1605 8.82321C18.2278 8.72807 18.2949 8.63307 18.3859 8.57649C19.292 8.01468 20.2557 7.6145 21.3477 7.60757C21.7084 7.60526 22.0708 7.56774 22.4291 7.52164C22.7189 7.48436 22.7307 7.33291 22.5617 7.11522C22.1553 6.59117 21.5429 6.63215 21.0928 6.81509C20.2707 7.1495 19.6969 6.99017 19.2044 6.30377C19.1927 6.28741 19.1772 6.27374 19.1618 6.26012C19.1449 6.2452 19.128 6.23035 19.1163 6.21207C18.894 5.86561 18.5763 5.96427 18.3517 6.13425C18.0855 6.33548 17.8515 6.61316 17.685 6.90495C17.5747 7.09842 17.5137 7.3205 17.4502 7.55161C17.4216 7.65578 17.3925 7.7618 17.3581 7.86785H16.7766C16.4672 7.86785 16.3137 7.86785 16.234 7.79073C16.1556 7.71485 16.1485 7.56434 16.1345 7.26576C16.1 6.53074 16.0918 6.52857 15.3983 6.34343C15.3707 6.33608 15.3421 6.32843 15.3123 6.32044C14.4767 6.09603 13.9786 5.35522 14.1743 4.42334C14.2675 3.97928 14.4736 3.55367 14.6751 3.13737C14.696 3.09434 14.7168 3.05122 14.7374 3.00838C15.0624 2.3324 14.7804 1.82223 14.0424 1.80533C14.0068 1.80458 13.9713 1.80004 13.9257 1.79421C13.9016 1.79114 13.8747 1.78769 13.8434 1.78426C13.8434 1.68684 13.8404 1.59034 13.8373 1.49474C13.8307 1.28716 13.8243 1.08379 13.8496 0.884331C13.9349 0.214606 14.0824 0.0992823 14.741 0.0992823C15.1914 0.0992823 15.6418 0.0984059 16.0922 0.0975295C17.1604 0.0954512 18.2286 0.0933728 19.2966 0.102983C19.7177 0.106719 20.1388 0.123551 20.5599 0.140382C21.0521 0.160055 21.5442 0.179726 22.0363 0.178482C22.9057 0.176011 23.775 0.148142 24.6443 0.120274C24.9191 0.111465 25.1939 0.102656 25.4687 0.0946494C25.5082 0.0936999 25.5471 0.0695418 25.586 0.045377C25.6042 0.0340666 25.6224 0.0227531 25.6406 0.0138191H26.065C26.2106 0.0307672 26.3561 0.0498251 26.5017 0.0688842C26.8454 0.113895 27.1891 0.158912 27.5341 0.17616C27.8459 0.191449 28.06 0.212749 28.2223 0.561978C28.4297 1.00846 28.7776 1.40932 29.3431 1.37205C30.1326 1.3204 30.923 1.19696 31.5861 0.725464C32.0148 0.420721 32.4817 0.371151 32.9401 0.461461C33.2723 0.527 33.6607 0.63469 33.7222 1.13351C33.7752 1.56332 33.8852 2.00009 34.0528 2.39818C34.4085 3.24321 34.9887 3.54774 35.8938 3.42684C36.002 3.41243 36.1108 3.38258 36.2191 3.35288C36.3961 3.30431 36.5717 3.25615 36.7406 3.27655C37.3429 3.34973 37.9213 4.50485 37.6866 5.08056C37.3572 5.88784 37.7638 6.83131 38.5694 7.09555C39.1125 7.27386 39.5274 7.61544 39.7958 8.10453C39.9678 8.41717 40.0065 8.75968 39.6934 9.06629C39.238 9.51207 39.1618 10.4338 39.5334 10.9548C39.6347 11.0969 39.7549 11.2252 39.8752 11.3535C39.976 11.4612 40.077 11.5689 40.167 11.685C40.6592 12.3193 40.8826 12.6532 40.4216 13.3739C40.3922 13.42 40.3598 13.4666 40.327 13.5136C40.2147 13.6751 40.0985 13.842 40.0848 14.0131C40.0445 14.5149 40.0582 15.0215 40.0718 15.527C40.074 15.607 40.0762 15.6871 40.0781 15.767C40.0807 15.8643 40.1585 16.0334 40.222 16.044C40.5678 16.1015 40.6844 16.3515 40.801 16.6017C40.8376 16.6803 40.8743 16.759 40.918 16.8316V17.6855C40.7232 18.0611 40.4608 18.361 40.0516 18.5152C39.9736 18.5446 39.9105 18.6352 39.8585 18.7102C39.4984 19.2289 39.663 19.6613 40.0832 20.3134C40.2043 20.5015 40.2938 20.7368 40.3139 20.9581C40.3563 21.4262 40.1421 21.7974 39.8419 22.1617C39.5299 22.5403 39.1924 22.9694 39.084 23.4284C38.9818 23.8617 38.9811 24.3192 38.9804 24.7767C38.9801 24.9742 38.9798 25.1719 38.9714 25.3674C38.9674 25.4631 38.9624 25.5586 38.9579 25.6437L38.9555 25.6902C38.9543 25.7121 38.9532 25.733 38.9523 25.7528H37.0648C37.0774 25.5732 37.0931 25.3942 37.1088 25.2158C37.1426 24.8302 37.1763 24.4467 37.1781 24.0632C37.19 21.4139 37.196 18.7642 37.1748 16.1151C37.1693 15.4296 37.1058 14.7363 36.9833 14.0624C36.8396 13.2703 36.6631 12.4842 36.4866 11.6981C36.4074 11.3455 36.3283 10.9928 36.252 10.6396C35.9953 9.45047 35.5703 8.35047 34.7028 7.45612C34.4435 7.18875 34.1985 6.90727 33.9536 6.62576C33.7229 6.36062 33.4921 6.09538 33.2493 5.84199C33.195 5.78531 33.1405 5.72582 33.0854 5.66565C32.8329 5.39003 32.5672 5.10006 32.2524 4.99952C31.7518 4.83957 31.2213 4.77308 30.6913 4.70665C30.4893 4.68133 30.2872 4.656 30.087 4.62552C29.8192 4.58475 29.7317 4.70563 29.702 4.98353C29.664 5.33716 29.6047 5.72296 29.4292 6.01985C29.0903 6.59371 28.5946 6.97049 27.8629 6.93482C27.2544 6.9054 27.2535 6.92903 27.2532 7.56426C27.2532 7.71331 27.2588 7.86324 27.2645 8.01316C27.2768 8.34143 27.2892 8.66972 27.2415 8.98893C27.0122 10.525 26.4958 11.964 25.7332 13.3213L25.7161 13.3517C24.9971 14.6321 24.2819 15.9057 23.0187 16.7446C22.8269 16.8717 22.8622 16.9842 23.0065 17.1343C23.289 17.4279 23.5658 17.7285 23.8236 18.0442C24.1756 18.4746 24.524 18.9081 24.8725 19.3416C25.3692 19.9595 25.8664 20.5778 26.3733 21.1872C26.8088 21.7109 27.2559 22.2248 27.703 22.7387C28.0246 23.1083 28.3469 23.4788 28.6641 23.852C29.0314 24.2842 29.3951 24.7194 29.7587 25.1547L29.7602 25.1565C30.1354 25.6055 30.5105 26.0545 30.8896 26.5001C30.9752 26.6008 31.1115 26.7009 31.2359 26.7182C31.3297 26.7313 31.4236 26.7449 31.5176 26.7585C31.9902 26.8269 32.4651 26.8957 32.9385 26.8926C33.3489 26.8899 33.7589 26.8521 34.169 26.8142C34.4946 26.7842 34.8203 26.7541 35.1465 26.7416C35.4803 26.7289 35.815 26.7326 36.1495 26.7363C36.5668 26.741 36.984 26.7456 37.3993 26.7182C37.7689 26.6937 37.9857 26.7903 38.0939 27.1242C38.1476 27.2898 37.6846 27.8213 37.552 27.837C37.5427 27.882 37.5371 27.9257 37.5318 27.9674C37.5211 28.0511 37.5115 28.1263 37.4755 28.1853C37.1868 28.6582 37.065 29.1144 37.4267 29.622C37.5549 29.8019 37.6485 30.0067 37.7513 30.2317C37.8005 30.3393 37.8518 30.4515 37.91 30.5678C37.8302 30.6134 37.7531 30.668 37.6774 30.7216C37.5167 30.8356 37.3626 30.9448 37.2043 30.9515C36.7682 30.97 36.331 30.9565 35.8936 30.9429C35.5697 30.9329 35.2454 30.9229 34.9217 30.9258C34.6286 30.9286 34.4765 30.7913 34.2925 30.596C34.2517 30.5526 34.2117 30.5077 34.1716 30.4628C33.9101 30.1695 33.6467 29.8739 33.1388 29.9641C32.8486 30.0156 32.5471 30.0026 32.25 29.9897C32.1186 29.9841 31.988 29.9784 31.8596 29.9784C31.6482 31.4654 32.4156 32.3174 33.6386 32.8007C35.2114 33.422 36.8331 33.7673 38.5353 33.6559C38.6677 33.6472 38.8034 33.682 38.9385 33.7167C38.9934 33.7308 39.0483 33.7448 39.1028 33.756C39.1932 33.7744 39.2828 33.7964 39.3781 33.8198C39.4229 33.8308 39.4695 33.8423 39.5175 33.8537V35.4423L39.2856 35.7211C38.9935 36.0725 38.7298 36.3895 38.4667 36.7072C38.4602 36.7149 38.4599 36.7285 38.4596 36.741L38.4594 36.7459L38.4593 36.7487C38.4504 36.9218 38.44 37.0949 38.4295 37.268C38.4058 37.6597 38.3821 38.0516 38.3767 38.4436C38.3652 39.2787 38.3737 40.1144 38.3916 40.9495C38.3949 41.091 38.449 41.3015 38.5484 41.3585C38.8779 41.5469 38.8787 41.8335 38.8796 42.1272C38.8797 42.1664 38.8798 42.2058 38.8807 42.245C38.8849 42.4333 38.8896 42.6215 38.8942 42.8098C38.9075 43.345 38.9207 43.8802 38.9246 44.4154C38.9253 44.4962 38.8517 44.6057 38.7803 44.6541C38.6008 44.7758 38.4178 44.8922 38.2347 45.0087C37.9865 45.1667 37.7381 45.3248 37.4988 45.4957C37.1806 45.7226 37.2068 45.916 37.5453 46.117C37.6632 46.1871 37.7835 46.2536 37.8762 46.3048C37.9123 46.3248 37.9443 46.3425 37.9703 46.3571C37.9787 46.5199 37.9867 46.6721 37.9943 46.8175C38.0078 47.0755 38.0201 47.3122 38.0318 47.5489C38.0465 47.8467 37.9146 47.9953 37.6079 47.993C37.3115 47.9907 37.015 47.9917 36.7185 47.9927C36.2935 47.994 35.8686 47.9954 35.4437 47.9872C35.1664 47.9818 34.8895 47.9585 34.578 47.9323C34.4289 47.9198 34.2718 47.9066 34.103 47.8944C34.0873 47.8351 34.0701 47.7671 34.0513 47.6931C34.0018 47.4975 33.9413 47.2592 33.87 47.0243C33.8571 46.9819 33.8452 46.9354 33.833 46.8878C33.7889 46.7164 33.7413 46.5309 33.6324 46.4701C33.0471 46.1434 32.5943 46.3622 32.4191 46.9982C32.1663 47.9166 31.9823 48.0011 31.1131 47.9921C30.9763 47.9908 30.8393 47.9933 30.7022 47.9959C30.4407 48.0008 30.1793 48.0056 29.9203 47.9833C29.6366 47.9588 29.3563 47.8826 29.0787 47.8071C29.0439 47.7976 29.009 47.7882 28.9743 47.7788C28.9411 47.7698 28.9024 47.6003 28.9351 47.553C29.0264 47.4197 29.1258 47.2915 29.2251 47.1635C29.3685 46.9786 29.5117 46.7938 29.6302 46.5941C30.4429 45.2229 31.24 43.8427 32.0341 42.4604C32.6468 41.3939 33.2509 40.3222 33.8461 39.2458C33.9232 39.1064 33.9589 38.9218 33.9508 38.7613C33.9368 38.4849 33.9039 38.2095 33.8702 37.9271C33.8564 37.8119 33.8425 37.6953 33.8297 37.5773C33.7963 37.5773 33.7634 37.5761 33.731 37.5749C33.662 37.5724 33.5951 37.57 33.5297 37.5793C33.314 37.6097 33.0985 37.6427 32.8831 37.6756C32.5093 37.7328 32.1348 37.7901 31.7594 37.8338C31.5427 37.859 31.3242 37.8691 31.1057 37.8791C30.8905 37.889 30.6749 37.8989 30.4614 37.9232C29.6523 38.0157 28.884 37.8505 28.1113 37.6361C28.0359 37.6151 27.9601 37.588 27.8835 37.5606C27.5949 37.4573 27.2964 37.3505 26.9758 37.558C26.9339 37.5851 26.7582 37.4286 26.6627 37.338C26.6286 37.3059 26.602 37.2582 26.5762 37.2121C26.5408 37.1487 26.507 37.0883 26.458 37.0752C25.5589 36.833 24.9002 36.2445 24.2968 35.5799C23.8358 35.0722 23.5888 34.4435 23.5365 33.7777C23.5072 33.4059 23.5347 33.03 23.5623 32.6536C23.5793 32.4212 23.5964 32.1886 23.6001 31.9566C23.6139 31.0889 23.6166 30.2204 23.5913 29.3532C23.5869 29.1992 23.4578 28.9984 23.3261 28.9085C23.0838 28.7436 22.8273 28.5998 22.5707 28.456C22.4303 28.3773 22.2898 28.2986 22.1516 28.2163C21.6165 27.8976 21.0817 27.5783 20.5469 27.2589C19.5493 26.663 18.551 26.0668 17.5507 25.4756C17.4864 25.4376 17.3953 25.4191 17.3095 25.4018C17.1981 25.3792 17.0956 25.3585 17.0721 25.2991C16.9399 24.9666 16.6678 24.8518 16.3986 24.7381C16.2943 24.6941 16.1904 24.6502 16.0953 24.594C15.7966 24.4175 15.5107 24.2171 15.2247 24.0168C14.4861 23.4993 13.7469 22.9814 12.7864 22.8724C12.444 22.8335 12.3372 22.4115 12.3454 22.0971C12.3473 22.0232 12.4938 21.9533 12.6414 21.8829C12.7112 21.8496 12.7813 21.8162 12.8365 21.7821C12.865 21.7646 12.8936 21.7471 12.9221 21.7296C13.0685 21.6402 13.215 21.5507 13.3511 21.4475C13.3686 21.4343 13.2926 21.2314 13.2651 21.2328C13.0268 21.2436 12.789 21.2652 12.5512 21.2869C12.4418 21.2968 12.3321 21.3068 12.2226 21.3157C12.1156 21.3245 12.0056 21.3314 11.9003 21.3159C11.8081 21.3024 11.7161 21.2819 11.6243 21.2614C11.4729 21.2276 11.3218 21.1939 11.1699 21.1916C10.2558 21.1777 9.34139 21.1821 8.42702 21.1865L8.24188 21.1874C8.18264 21.1876 8.121 21.185 8.05886 21.1824C7.8566 21.1738 7.649 21.165 7.50177 21.2527C7.42011 21.3015 7.41189 21.4743 7.40363 21.6483C7.3998 21.7288 7.39597 21.8096 7.38482 21.8784C7.38247 21.8929 7.3749 21.9064 7.36729 21.92C7.36074 21.9316 7.35416 21.9434 7.35085 21.9558C7.23309 22.4032 7.19648 22.8219 7.65742 23.1248C7.80799 23.2237 7.95304 23.3622 8.04227 23.5166C8.14137 23.688 8.2177 23.8969 8.22496 24.0924C8.23264 24.3 8.2066 24.5089 8.18062 24.7172C8.16963 24.8053 8.15866 24.8933 8.15025 24.9811C7.79027 24.9351 7.25531 25.4137 7.2217 25.8681C7.2119 26 7.19768 26.1315 7.18346 26.263C7.16709 26.4144 7.15072 26.5657 7.14111 26.7175C7.1136 27.1548 7.10036 27.5885 7.46275 27.9269C7.58289 28.039 7.69459 28.1604 7.83217 28.31C7.90274 28.3867 7.98014 28.4708 8.06896 28.5649C6.88708 29.6853 5.73794 30.7745 4.5949 31.8579L4.1622 32.268C4.1622 32.1722 4.17067 32.0707 4.17929 31.9675C4.19902 31.7311 4.2195 31.4857 4.14066 31.2788C4.03783 31.0086 3.82858 31.051 3.61243 31.0948C3.47408 31.1228 3.3329 31.1515 3.215 31.099C3.21121 31.0973 3.20399 31.1034 3.19029 31.1149C3.18152 31.1223 3.17011 31.1318 3.15524 31.143C3.16141 31.1582 3.16881 31.1739 3.17646 31.1901C3.19392 31.2271 3.21267 31.2669 3.22075 31.3086C3.24815 31.4499 3.1811 31.5841 3.11401 31.7185C3.01137 31.9241 2.90862 32.1299 3.14385 32.3611C2.93217 32.4493 2.99187 32.538 3.05696 32.6346C3.08451 32.6755 3.11302 32.7179 3.12233 32.7622C3.1785 33.0297 3.22226 33.309 2.88554 33.4929C2.73096 33.5773 2.60406 33.7141 2.47767 33.8504C2.42798 33.9039 2.37828 33.9575 2.32709 34.0077C2.164 34.1676 2.00288 34.3297 1.84181 34.4917L1.84089 34.4927C1.76958 34.5644 1.69748 34.6369 1.62602 34.7084C1.57536 34.6901 1.52471 34.6719 1.47406 34.6533C1.47406 34.4815 1.47295 34.3096 1.47183 34.1377C1.4694 33.7622 1.46697 33.3866 1.47614 33.0114C1.49462 32.2516 1.51647 31.4918 1.53833 30.732C1.56777 29.7082 1.59721 28.6844 1.61842 27.6605C1.65813 25.7445 1.68198 23.8279 1.7042 21.9113C1.71156 21.2723 1.70965 20.633 1.70775 19.9938C1.70689 19.7041 1.70603 19.4144 1.70603 19.1247C1.70603 18.8612 1.70652 18.5977 1.70702 18.3342C1.70834 17.6302 1.70967 16.9262 1.70154 16.2223C1.69867 15.9662 1.78419 15.7411 2.02467 15.7356C2.74904 15.7194 3.47405 15.7324 4.19897 15.7454C4.34938 15.748 4.49979 15.7507 4.65018 15.7532C4.81235 15.7558 4.97454 15.7651 5.1367 15.7743C5.35255 15.7866 5.56844 15.7989 5.7841 15.7958C6.46133 15.7851 7.13882 15.762 7.81491 15.7233C7.94094 15.716 8.06872 15.7379 8.1963 15.7596C8.52913 15.8165 8.86062 15.8731 9.15638 15.4127C9.37202 15.0771 9.69927 14.8158 10.0282 14.5532C10.2124 14.4062 10.3971 14.2588 10.563 14.0976C10.6856 13.9786 10.7596 13.7676 10.7797 13.5902C10.8528 12.9412 10.9007 12.2891 10.9485 11.6372L10.953 11.5761C10.9823 11.1794 10.9558 10.8052 10.6975 10.456C10.1052 9.65519 9.42103 9.07717 8.34456 9.14063C7.65904 9.18115 7.21697 8.66497 7.39771 7.95123C7.4799 7.62656 7.38506 7.39174 7.22009 7.11452C7.04809 6.82575 6.94806 6.47421 6.89718 6.13772C6.85632 5.86701 6.74591 5.8112 6.51383 5.81653C6.34538 5.82033 6.17668 5.81819 6.00803 5.81606C5.76617 5.81299 5.52432 5.80993 5.28356 5.82439C4.87131 5.84941 4.52988 5.81096 4.33556 5.36379C4.27402 5.22205 4.16033 5.10261 4.04718 4.98374C4.00263 4.93694 3.95817 4.89022 3.917 4.84227C3.80528 4.71208 3.69162 4.58341 3.57798 4.45475C3.30694 4.1479 3.03597 3.84113 2.7916 3.51416C2.70179 3.39377 2.73562 3.16519 2.76256 2.98318C2.76417 2.97225 2.76576 2.9615 2.7673 2.95095C2.77179 2.91946 3.02251 2.89444 3.15098 2.91645C3.81511 3.03015 4.15551 2.65545 4.03752 1.93199C3.8507 1.92087 3.66401 1.90915 3.47739 1.89744C2.96465 1.86526 2.45246 1.83312 1.93983 1.81343C1.84562 1.80977 1.75 1.84332 1.63426 1.88392C1.57437 1.90493 1.5091 1.92783 1.43585 1.94844C1.40747 1.91708 1.37486 1.88238 1.33967 1.84494C1.25222 1.7519 1.14886 1.64193 1.05503 1.52419C0.804514 1.20997 0.558114 0.892357 0.311718 0.574754C0.210735 0.444589 0.109754 0.314424 0.00849051 0.184494ZM14.8561 10.993C14.8344 10.9706 14.8128 10.9482 14.7911 10.9257C14.7696 10.9034 14.748 10.881 14.7264 10.8587C14.6497 10.8862 14.5729 10.9134 14.4961 10.9405C14.3316 10.9986 14.1669 11.0568 14.0037 11.1183C13.9763 11.1286 13.949 11.1389 13.9216 11.1491C13.6924 11.235 13.4631 11.321 13.2395 11.4201C13.0046 11.5241 12.8261 11.6838 12.9996 11.9622C13.1439 12.1936 13.6761 12.3512 13.8084 12.2058C14.0664 11.922 14.3148 11.6294 14.5633 11.3368C14.6607 11.2221 14.7581 11.1073 14.8561 10.993ZM21.9317 1.58067C21.6167 1.56197 21.3031 1.54336 20.9756 1.52396C21.0727 2.03249 21.1916 2.1571 21.5859 2.22981C22.0805 2.32105 22.2847 2.20967 22.6075 1.62076C22.3778 1.60714 22.1544 1.59388 21.9317 1.58067ZM14.3421 45.5571C14.0837 46.1961 13.8321 46.8183 13.556 47.4294C13.4912 47.5727 13.2389 47.7193 13.0774 47.7147C12.5978 47.701 12.119 47.6647 11.64 47.6283C11.3536 47.6065 11.0669 47.5847 10.7802 47.5678C10.5627 47.555 10.3442 47.558 10.1031 47.5613C9.98666 47.5629 9.86496 47.5646 9.73552 47.5646L9.79476 47.2392C9.84599 46.9579 9.89572 46.6847 9.95022 46.3852C9.85044 46.3745 9.75241 46.363 9.65557 46.3517C9.43545 46.3259 9.22083 46.3008 9.00613 46.2875C8.77628 46.2731 8.66291 46.3927 8.50746 46.5567C8.48945 46.5757 8.47088 46.5953 8.4515 46.6154C8.36579 46.704 8.28569 46.8049 8.20441 46.9073C7.92564 47.2585 7.633 47.6273 7.05258 47.5769C6.59098 47.5367 6.12511 47.5464 5.65925 47.5561C5.45392 47.5603 5.2486 47.5646 5.04365 47.5646C5.03926 47.5488 5.03486 47.533 5.03045 47.5172L5.02499 47.4976C5.01792 47.4722 5.01085 47.4469 5.00381 47.4215C5.06456 47.3387 5.12241 47.253 5.18026 47.1673C5.3059 46.9812 5.43153 46.7951 5.58689 46.6388C6.33471 45.8861 7.09186 45.1427 7.84904 44.3993C8.14603 44.1077 8.44366 43.8155 8.7401 43.5233C9.12266 43.1464 9.50577 42.7699 9.88888 42.3935C10.8787 41.421 11.8685 40.4484 12.8491 39.4667C13.3848 38.9303 13.9065 38.3797 14.4281 37.8291C14.6539 37.5908 14.8803 37.3518 15.1073 37.1146C15.3229 36.8892 15.3065 36.5928 15.0794 36.3934C14.9426 36.2733 14.8017 36.1564 14.6609 36.0396C14.3204 35.7572 13.9797 35.4746 13.6942 35.144C12.9104 34.2365 12.4231 33.1918 12.2966 31.9577C12.1953 30.9696 12.2825 30.0454 12.6448 29.1276C12.9229 28.4229 13.4737 27.9896 14.0556 27.5783C14.7548 27.0844 15.5354 26.7812 16.3712 26.6191C16.8881 26.5188 17.3627 26.5318 17.8457 26.8512C18.3712 27.1985 18.9189 27.5115 19.4668 27.8246C19.781 28.0041 20.0953 28.1837 20.4055 28.3699C20.9636 28.705 21.5123 29.0565 22.0552 29.4159C22.2435 29.5407 22.386 29.691 22.3423 29.9819C22.2916 30.3175 22.3022 30.6695 22.3374 31.0087C22.3828 31.4455 22.2601 31.7363 21.8162 31.86C21.3069 32.0017 21.1941 32.4149 21.1388 32.8757C21.1225 33.0117 21.0907 33.1458 21.059 33.2798C21.0262 33.4181 20.9934 33.5564 20.9777 33.6967C20.9284 34.1367 21.3087 34.6876 21.7989 34.921C21.8891 34.964 21.9816 35.003 22.0739 35.042C22.248 35.1154 22.4217 35.1887 22.5796 35.2881C22.6722 35.3462 22.7302 35.5338 22.7272 35.6605C22.7159 36.1358 22.6911 36.6108 22.6652 37.1079C22.6558 37.2892 22.6461 37.4735 22.637 37.6618C22.531 37.6618 22.4161 37.6655 22.2952 37.6695C22.0031 37.679 21.6758 37.6896 21.3543 37.6516C20.685 37.5722 20.2365 37.8924 19.8199 38.3459C19.6479 38.533 19.467 38.7116 19.286 38.8903C19.1498 39.0247 19.0136 39.1591 18.8812 39.2972C18.8633 39.3159 18.8447 39.3348 18.8259 39.3538C18.7198 39.4616 18.6073 39.5757 18.5661 39.7076C18.3061 40.5387 18.0644 41.3761 17.8335 42.216C17.7232 42.6175 17.6193 43.0208 17.5153 43.4241C17.3913 43.9054 17.2672 44.3871 17.1322 44.8653C17.0481 45.1634 16.8158 45.1263 16.6044 45.0926C16.5528 45.0844 16.5025 45.0764 16.4559 45.0735C16.0323 45.0469 15.6098 45.0018 15.166 44.9544C14.9849 44.9351 14.8002 44.9153 14.6105 44.8963C14.5194 45.1186 14.4303 45.339 14.3421 45.5571ZM33.5357 25.8856C33.698 25.8825 33.8607 25.8795 34.0236 25.8795C34.0204 25.8157 34.0163 25.756 34.0123 25.6991C34.0042 25.5821 33.9968 25.4767 34.0006 25.3718C34.005 25.2467 34.007 25.1211 34.0091 24.9955C34.0148 24.6439 34.0205 24.292 34.0784 23.9492C34.0843 23.9142 34.09 23.8791 34.0957 23.8439C34.164 23.4216 34.232 23.0007 34.715 22.7277C35.0318 22.5486 35.2273 22.1089 35.0829 21.6612C35.0338 21.509 34.9813 21.3579 34.9289 21.2068C34.859 21.0057 34.7892 20.8046 34.7274 20.6011C34.5439 19.9976 34.4988 19.3866 34.8149 18.8179C34.8685 18.7213 34.9698 18.654 35.0725 18.5857C35.1546 18.5311 35.2376 18.4759 35.2979 18.4048C35.7085 17.9212 35.6564 17.2283 35.1932 16.6862C34.6482 16.0484 34.6542 15.1467 35.2222 14.5809C35.9161 13.8896 35.4738 12.6699 34.73 12.4342C34.1005 12.2345 33.9186 11.3925 34.3795 10.9041C34.4211 10.86 34.4645 10.8176 34.5079 10.7752C34.566 10.7184 34.624 10.6617 34.6777 10.601C34.9685 10.2721 34.9751 9.72305 34.6749 9.2321C34.4764 8.90765 34.1352 8.73165 33.7936 8.82731C33.0674 9.03063 32.854 8.82845 32.6873 8.02119C32.5733 7.46908 32.4336 6.93414 31.9991 6.53906C31.8325 6.38768 31.6583 6.24465 31.4832 6.10092C31.4025 6.03467 31.3216 5.96826 31.2412 5.90082C31.0928 6.01987 30.9444 6.13688 30.7967 6.25333C30.4571 6.52106 30.1213 6.78584 29.7983 7.06568C29.4126 7.39961 29.3804 7.91742 29.7377 8.11981C30.4227 8.50847 30.6934 9.197 30.9499 9.8495C30.9571 9.86767 30.9642 9.88581 30.9713 9.90392C31.4633 11.154 31.8674 12.4413 32.0214 13.7905C32.0549 14.0837 32.0926 14.3766 32.1304 14.6694C32.2124 15.306 32.2944 15.9426 32.3323 16.582C32.3601 17.0501 32.3286 17.5217 32.2971 17.9933C32.2833 18.2008 32.2694 18.4083 32.2607 18.6155C32.2519 18.821 32.2405 19.0264 32.2292 19.2319C32.2047 19.6753 32.1802 20.1186 32.1819 20.5617C32.1836 20.9539 32.2001 21.3462 32.2166 21.7385C32.237 22.2222 32.2573 22.7058 32.2498 23.1892C32.2441 23.5676 32.202 23.9452 32.1599 24.3231C32.129 24.6004 32.0981 24.8778 32.0815 25.1558C32.0797 25.1859 32.0772 25.2174 32.0745 25.2496C32.0526 25.5175 32.0265 25.8366 32.4193 25.869C32.7888 25.8996 33.1614 25.8926 33.5357 25.8856Z" fill="#212121"/>
</svg>