<svg width="315" height="360" viewBox="0 0 315 360" fill="none" xmlns="http://www.w3.org/2000/svg">
<path fill-rule="evenodd" clip-rule="evenodd" d="M1.06495 2.37602C0.748757 0.812638 1.64811 0.947071 2.44391 1.06602C2.64774 1.09649 2.84478 1.12595 3.01286 1.12559C12.8918 1.10003 22.7702 1.10128 32.6491 1.10253C34.7812 1.1028 36.9135 1.10307 39.0457 1.10307H60.1464C60.4208 1.53895 60.6784 1.98892 60.936 2.43888C61.5 3.42403 62.0643 4.40975 62.8041 5.24665C64.6383 7.31912 66.5185 9.35318 68.3986 11.3871C70.5829 13.7502 72.767 16.113 74.8787 18.5357C77.3472 21.3695 79.7594 24.2501 82.1715 27.1305C84.834 30.3099 87.4972 33.4903 90.2346 36.6058C95.0249 42.0568 99.9853 47.3661 104.963 52.6514C109.407 57.3698 113.916 62.0292 118.424 66.6882C119.418 67.7152 120.412 68.7421 121.405 69.7697C122.572 70.977 123.264 71.965 121.414 73.2984C120.725 73.7944 120.234 74.5559 119.743 75.3171C119.521 75.6611 119.299 76.0051 119.059 76.3245C122.941 75.6024 126.4 74.4763 129.72 73.0411C132.653 71.7732 135.54 70.3276 138.229 68.628C138.908 68.1995 139.413 67.5025 139.918 66.8064C140.432 66.0969 140.946 65.3883 141.642 64.9663C148.573 60.7762 155.945 57.7915 164.298 57.7398C167.057 57.7225 169.83 57.4427 172.57 57.0989C174.787 56.8208 174.877 55.6913 173.584 54.0677C170.476 50.1591 165.791 50.4648 162.348 51.8292C156.06 54.3234 151.67 53.135 147.903 48.0156C147.813 47.8936 147.695 47.7917 147.577 47.6901C147.448 47.5788 147.319 47.468 147.229 47.3317C145.529 44.7477 143.098 45.4835 141.38 46.7512C139.344 48.2521 137.554 50.3232 136.281 52.4994C135.436 53.9424 134.97 55.5987 134.484 57.3224C134.265 58.0993 134.043 58.8901 133.78 59.681H129.332C126.965 59.681 125.791 59.6811 125.181 59.1058C124.581 58.54 124.527 57.4174 124.42 55.1904C124.156 49.7085 124.093 49.6923 118.788 48.3114C118.578 48.2566 118.358 48.1995 118.131 48.1399C111.739 46.4662 107.928 40.941 109.425 33.9907C110.139 30.6788 111.715 27.5044 113.257 24.3995C113.416 24.0786 113.576 23.757 113.733 23.4375C116.219 18.3958 114.062 14.5908 108.416 14.4647C108.144 14.4591 107.873 14.4253 107.524 14.3818C107.34 14.3589 107.134 14.3332 106.895 14.3076C106.895 13.581 106.871 12.8613 106.848 12.1482C106.797 10.6001 106.748 9.08329 106.942 7.59564C107.595 2.6006 108.722 1.74048 113.76 1.74048C117.206 1.74048 120.651 1.73394 124.097 1.72741C132.267 1.71191 140.438 1.69641 148.608 1.76808C151.829 1.79594 155.051 1.92148 158.272 2.04701C162.036 2.19374 165.801 2.34046 169.565 2.33118C176.216 2.31275 182.866 2.10489 189.515 1.89704C191.617 1.83134 193.719 1.76564 195.821 1.70593C196.123 1.69885 196.421 1.51867 196.718 1.33844C196.857 1.25408 196.997 1.1697 197.137 1.10307H200.382C201.496 1.22947 202.61 1.37161 203.723 1.51376C206.352 1.84947 208.982 2.18522 211.621 2.31386C214.005 2.42789 215.643 2.58675 216.885 5.19142C218.472 8.52141 221.133 11.5112 225.458 11.2332C231.497 10.848 237.543 9.92732 242.616 6.41075C245.895 4.13788 249.467 3.76817 252.973 4.44173C255.515 4.93054 258.486 5.73373 258.956 9.4541C259.361 12.6598 260.203 15.9173 261.485 18.8864C264.206 25.1889 268.644 27.4602 275.567 26.5585C276.395 26.4511 277.227 26.2284 278.056 26.0069C279.41 25.6447 280.753 25.2854 282.045 25.4376C286.652 25.9834 291.076 34.5986 289.282 38.8925C286.761 44.9135 289.872 51.9502 296.034 53.9209C300.189 55.2508 303.362 57.7985 305.416 61.4463C306.732 63.7781 307.027 66.3326 304.632 68.6194C301.149 71.9442 300.566 78.8185 303.408 82.7047C304.183 83.7644 305.102 84.721 306.023 85.6785C306.794 86.4811 307.567 87.2851 308.255 88.1505C312.02 92.8813 313.729 95.372 310.203 100.747C309.978 101.091 309.73 101.438 309.479 101.789C308.62 102.993 307.731 104.238 307.626 105.514C307.318 109.257 307.422 113.035 307.527 116.805C307.544 117.403 307.56 117.999 307.575 118.596C307.595 119.321 308.19 120.582 308.676 120.662C311.321 121.09 312.213 122.955 313.104 124.821C313.385 125.407 313.665 125.994 314 126.536V132.904C312.51 135.706 310.502 137.942 307.373 139.093C306.776 139.312 306.293 139.987 305.895 140.547C303.14 144.416 304.4 147.641 307.614 152.504C308.54 153.907 309.225 155.662 309.379 157.313C309.703 160.804 308.065 163.572 305.768 166.289C303.382 169.113 300.8 172.314 299.97 175.737C299.189 178.969 299.184 182.381 299.179 185.793C299.176 187.266 299.174 188.74 299.109 190.199C299.079 190.912 299.04 191.625 299.006 192.259L298.987 192.606C298.979 192.769 298.97 192.925 298.963 193.073H284.525C284.621 191.733 284.741 190.399 284.861 189.068C285.12 186.192 285.378 183.332 285.391 180.471C285.483 160.712 285.529 140.949 285.367 121.192C285.324 116.079 284.838 110.908 283.901 105.882C282.802 99.9742 281.452 94.1115 280.102 88.2487C279.496 85.6185 278.891 82.9883 278.308 80.3539C276.344 71.4848 273.093 63.2806 266.457 56.6102C264.473 54.6161 262.6 52.5167 260.726 50.4171C258.961 48.4397 257.195 46.4614 255.338 44.5715C254.923 44.1487 254.507 43.7051 254.085 43.2563C252.153 41.2006 250.121 39.038 247.712 38.2881C243.884 37.0951 239.826 36.5992 235.772 36.1038C234.226 35.9149 232.68 35.726 231.149 35.4986C229.1 35.1946 228.431 36.0962 228.204 38.1688C227.913 40.8063 227.459 43.6838 226.117 45.898C223.524 50.1781 219.733 52.9883 214.135 52.7222C209.481 52.5028 209.474 52.679 209.472 57.4167C209.471 58.5285 209.515 59.6466 209.558 60.7648C209.653 63.2132 209.747 65.6616 209.382 68.0425C207.628 79.499 203.678 90.2318 197.845 100.355L197.714 100.582C192.214 110.131 186.743 119.63 177.08 125.886C175.613 126.835 175.883 127.674 176.987 128.793C179.148 130.983 181.265 133.225 183.237 135.579C185.93 138.79 188.595 142.023 191.261 145.256C195.06 149.864 198.863 154.476 202.741 159.021C206.072 162.927 209.492 166.76 212.913 170.593C215.372 173.349 217.838 176.112 220.264 178.896C223.074 182.119 225.856 185.366 228.637 188.612L228.649 188.625C231.519 191.974 234.388 195.323 237.288 198.647C237.943 199.398 238.986 200.144 239.937 200.273C240.654 200.371 241.373 200.472 242.092 200.574C245.707 201.084 249.34 201.597 252.961 201.574C256.101 201.554 259.236 201.272 262.374 200.99C264.864 200.765 267.356 200.541 269.851 200.448C272.405 200.353 274.964 200.381 277.523 200.408C280.715 200.443 283.907 200.478 287.084 200.273C289.911 200.09 291.569 200.811 292.397 203.301C292.808 204.536 289.266 208.5 288.251 208.618C288.181 208.953 288.138 209.28 288.097 209.59C288.015 210.214 287.942 210.775 287.667 211.215C285.458 214.742 284.527 218.145 287.293 221.931C288.274 223.272 288.99 224.8 289.777 226.478C290.153 227.281 290.545 228.118 290.99 228.985C290.38 229.325 289.79 229.732 289.211 230.132C287.981 230.982 286.803 231.796 285.592 231.847C282.256 231.985 278.912 231.884 275.566 231.783C273.089 231.708 270.608 231.633 268.132 231.655C265.89 231.676 264.726 230.651 263.318 229.196C263.006 228.872 262.7 228.537 262.394 228.202C260.394 226.014 258.378 223.809 254.493 224.482C252.273 224.866 249.967 224.769 247.694 224.673C246.689 224.631 245.69 224.589 244.708 224.589C243.091 235.679 248.961 242.034 258.317 245.638C270.347 250.273 282.753 252.848 295.773 252.017C296.786 251.952 297.824 252.211 298.858 252.47C299.278 252.575 299.698 252.68 300.115 252.763C300.806 252.9 301.492 253.065 302.22 253.239C302.563 253.322 302.92 253.407 303.287 253.492V265.341L301.513 267.42C299.278 270.04 297.261 272.405 295.249 274.775C295.199 274.832 295.197 274.934 295.194 275.027L295.193 275.063L295.192 275.084C295.124 276.375 295.044 277.666 294.964 278.957C294.783 281.878 294.601 284.802 294.56 287.725C294.472 293.953 294.537 300.187 294.675 306.415C294.699 307.47 295.113 309.041 295.874 309.465C298.394 310.87 298.4 313.008 298.407 315.199C298.408 315.491 298.408 315.785 298.415 316.077C298.448 317.481 298.483 318.886 298.519 320.29C298.62 324.281 298.722 328.273 298.752 332.264C298.757 332.867 298.193 333.684 297.647 334.045C296.274 334.953 294.874 335.821 293.474 336.69C291.575 337.868 289.675 339.047 287.845 340.322C285.411 342.014 285.611 343.457 288.2 344.956C289.103 345.479 290.022 345.975 290.731 346.357C291.008 346.506 291.252 346.638 291.452 346.747C291.516 347.961 291.577 349.096 291.635 350.181C291.738 352.105 291.833 353.87 291.922 355.635C292.034 357.856 291.025 358.965 288.679 358.948C286.412 358.931 284.144 358.938 281.876 358.945C278.625 358.956 275.374 358.966 272.124 358.905C270.003 358.864 267.885 358.69 265.503 358.495C264.362 358.402 263.16 358.303 261.869 358.212C261.749 357.77 261.617 357.263 261.474 356.711C261.094 355.252 260.632 353.475 260.087 351.723C259.988 351.407 259.897 351.06 259.803 350.705C259.466 349.427 259.102 348.043 258.269 347.59C253.792 345.153 250.328 346.785 248.988 351.528C247.054 358.378 245.647 359.008 238.998 358.941C237.952 358.931 236.903 358.95 235.855 358.969C233.855 359.006 231.855 359.042 229.874 358.875C227.703 358.693 225.56 358.124 223.436 357.561C223.169 357.491 222.903 357.42 222.637 357.35C222.383 357.283 222.087 356.019 222.337 355.666C223.036 354.672 223.796 353.716 224.555 352.761C225.652 351.382 226.748 350.004 227.654 348.514C233.871 338.287 239.969 327.993 246.043 317.684C250.729 309.73 255.351 301.736 259.904 293.708C260.493 292.668 260.766 291.292 260.705 290.095C260.597 288.033 260.346 285.979 260.088 283.873C259.983 283.014 259.876 282.144 259.778 281.264C259.523 281.264 259.271 281.255 259.024 281.246C258.495 281.228 257.983 281.21 257.484 281.279C255.833 281.506 254.185 281.752 252.537 281.997C249.678 282.424 246.813 282.851 243.942 283.177C242.284 283.365 240.613 283.44 238.941 283.515C237.295 283.589 235.646 283.663 234.012 283.844C227.823 284.533 221.946 283.302 216.036 281.702C215.459 281.546 214.879 281.344 214.293 281.139C212.085 280.369 209.802 279.572 207.35 281.12C207.029 281.322 205.685 280.155 204.955 279.48C204.694 279.24 204.49 278.884 204.293 278.54C204.022 278.068 203.764 277.617 203.389 277.519C196.511 275.712 191.473 271.324 186.857 266.367C183.331 262.58 181.441 257.891 181.041 252.925C180.817 250.152 181.027 247.349 181.238 244.541C181.369 242.808 181.499 241.073 181.527 239.343C181.633 232.871 181.654 226.394 181.46 219.926C181.427 218.777 180.439 217.28 179.431 216.609C177.578 215.379 175.616 214.307 173.653 213.234C172.579 212.647 171.505 212.06 170.448 211.447C166.354 209.07 162.263 206.688 158.173 204.306C150.541 199.862 142.905 195.415 135.253 191.005C134.761 190.722 134.064 190.584 133.408 190.455C132.556 190.287 131.772 190.132 131.592 189.689C130.581 187.209 128.5 186.353 126.44 185.505C125.643 185.177 124.847 184.849 124.12 184.43C121.835 183.114 119.648 181.62 117.46 180.125C111.811 176.266 106.156 172.403 98.8089 171.59C96.19 171.3 95.3727 168.153 95.4352 165.807C95.4502 165.256 96.5703 164.735 97.6996 164.21C98.2335 163.962 98.7696 163.712 99.1919 163.458C99.4099 163.327 99.6284 163.197 99.847 163.067C100.966 162.4 102.087 161.733 103.128 160.963C103.262 160.864 102.681 159.351 102.47 159.361C100.648 159.442 98.829 159.603 97.01 159.765C96.1726 159.839 95.3337 159.913 94.4958 159.98C93.6776 160.045 92.8357 160.097 92.0309 159.981C91.325 159.88 90.6218 159.727 89.9195 159.575C88.7612 159.323 87.6052 159.071 86.4437 159.054C79.4508 158.95 72.4564 158.983 65.462 159.016L64.0458 159.023C63.5926 159.024 63.1211 159.005 62.6457 158.985C61.0986 158.921 59.5105 158.856 58.3843 159.51C57.7596 159.873 57.6968 161.163 57.6336 162.46C57.6043 163.061 57.575 163.663 57.4897 164.177C57.4717 164.284 57.4138 164.385 57.3556 164.486C57.3055 164.573 57.2552 164.661 57.2299 164.754C56.3291 168.091 56.0491 171.213 59.575 173.473C60.7268 174.21 61.8363 175.243 62.5189 176.395C63.2769 177.673 63.8608 179.231 63.9163 180.689C63.9751 182.238 63.7759 183.795 63.5771 185.349C63.4931 186.006 63.4092 186.663 63.3448 187.318C60.5912 186.974 56.499 190.544 56.242 193.933C56.167 194.917 56.0582 195.898 55.9494 196.878C55.8242 198.007 55.699 199.136 55.6255 200.268C55.415 203.529 55.3138 206.764 58.0859 209.288C59.0048 210.125 59.8593 211.03 60.9117 212.145C61.4515 212.717 62.0436 213.345 62.723 214.046C53.6823 222.403 44.892 230.526 36.1484 238.607L32.8385 241.666C32.8385 240.951 32.9033 240.194 32.9692 239.424C33.1202 237.661 33.2768 235.831 32.6737 234.287C31.8872 232.273 30.2865 232.589 28.6331 232.916C27.5747 233.125 26.4948 233.338 25.593 232.947C25.5639 232.934 25.5087 232.979 25.4039 233.065C25.3369 233.12 25.2496 233.192 25.1358 233.275C25.183 233.388 25.2397 233.505 25.2981 233.626C25.4317 233.902 25.5751 234.199 25.6369 234.51C25.8465 235.564 25.3336 236.565 24.8205 237.567C24.0353 239.101 23.2493 240.636 25.0487 242.36C23.4295 243.018 23.8861 243.679 24.384 244.4C24.5947 244.705 24.8128 245.021 24.8841 245.352C25.3137 247.347 25.6485 249.43 23.0728 250.801C21.8903 251.431 20.9196 252.451 19.9528 253.467C19.5727 253.867 19.1925 254.266 18.801 254.641C17.5534 255.834 16.3209 257.042 15.0888 258.251L15.0818 258.258C14.5363 258.793 13.9848 259.334 13.4381 259.867C13.0506 259.731 12.6632 259.594 12.2757 259.456C12.2757 258.174 12.2672 256.892 12.2587 255.61C12.2401 252.81 12.2215 250.009 12.2916 247.21C12.433 241.543 12.6002 235.876 12.7673 230.209C12.9925 222.574 13.2178 214.938 13.38 207.301C13.6838 193.011 13.8662 178.716 14.0361 164.422C14.0924 159.656 14.0779 154.888 14.0633 150.12C14.0568 147.96 14.0502 145.799 14.0502 143.639C14.0502 141.673 14.054 139.708 14.0577 137.742C14.0679 132.492 14.078 127.241 14.0158 121.992C13.9938 120.081 14.6481 118.403 16.4876 118.361C22.0286 118.241 27.5745 118.337 33.1198 118.434C34.2703 118.454 35.4209 118.474 36.5713 118.492C37.8118 118.512 39.0524 118.581 40.2929 118.65C41.944 118.742 43.5954 118.834 45.2451 118.81C50.4255 118.731 55.608 118.558 60.7797 118.27C61.7438 118.215 62.7212 118.378 63.6971 118.541C66.243 118.965 68.7788 119.387 71.0412 115.953C72.6907 113.45 75.1939 111.501 77.7101 109.543C79.1189 108.446 80.5318 107.347 81.8011 106.145C82.739 105.257 83.3051 103.683 83.4585 102.36C84.0176 97.5197 84.384 92.6563 84.7502 87.7939L84.7845 87.3388C85.0082 84.38 84.8057 81.5889 82.8295 78.9843C78.2989 73.0116 73.0656 68.7005 64.8312 69.1739C59.5874 69.4761 56.2058 65.6262 57.5883 60.3029C58.217 57.8814 57.4916 56.13 56.2296 54.0625C54.914 51.9087 54.1487 49.2868 53.7595 46.7771C53.447 44.7581 52.6024 44.3418 50.8271 44.3816C49.5386 44.41 48.2482 44.394 46.9581 44.3781C45.108 44.3552 43.258 44.3324 41.4163 44.4403C38.2628 44.6269 35.6511 44.3401 34.1646 41.0049C33.6938 39.9478 32.8242 39.057 31.9587 38.1704C31.6179 37.8213 31.2778 37.4729 30.9629 37.1153C30.1083 36.1443 29.2388 35.1846 28.3695 34.225C26.2962 31.9364 24.2235 29.6485 22.3541 27.2098C21.6671 26.3119 21.9259 24.6071 22.132 23.2495C22.1444 23.1681 22.1565 23.0879 22.1683 23.0092C22.2026 22.7743 24.1205 22.5877 25.1033 22.7518C30.1834 23.5999 32.7873 20.8052 31.8848 15.4094C30.4557 15.3265 29.0276 15.2391 27.6001 15.1517C23.6779 14.9118 19.76 14.672 15.8386 14.5251C15.118 14.4979 14.3865 14.7481 13.5012 15.0509C13.0431 15.2076 12.5438 15.3784 11.9834 15.5321C11.7663 15.2982 11.5169 15.0394 11.2477 14.7602C10.5788 14.0662 9.7881 13.246 9.07036 12.3679C7.15408 10.0243 5.26926 7.65549 3.38447 5.28671C2.61201 4.31589 1.83956 3.34508 1.06495 2.37602ZM114.641 82.9897C114.475 82.8227 114.31 82.6552 114.144 82.4878C113.979 82.321 113.814 82.1543 113.649 81.9879C113.062 82.193 112.474 82.3954 111.887 82.5978C110.629 83.0311 109.369 83.4652 108.12 83.9241C107.911 84.0008 107.702 84.0773 107.492 84.1538C105.74 84.7944 103.985 85.4356 102.275 86.1747C100.478 86.9503 99.1127 88.142 100.44 90.218C101.543 91.9436 105.614 93.1197 106.627 92.0351C108.6 89.9186 110.501 87.7361 112.401 85.5537C113.146 84.6978 113.891 83.8416 114.641 82.9897ZM168.765 12.7891C166.355 12.6497 163.957 12.5109 161.452 12.3662C162.195 16.159 163.103 17.0884 166.12 17.6307C169.903 18.3112 171.466 17.4805 173.935 13.0882C172.178 12.9866 170.469 12.8877 168.765 12.7891ZM110.709 340.78C108.733 345.546 106.808 350.187 104.696 354.744C104.2 355.813 102.27 356.907 101.035 356.872C97.3663 356.77 93.7033 356.499 90.0395 356.228C87.8484 356.065 85.6557 355.903 83.4626 355.777C81.7985 355.681 80.1276 355.704 78.2828 355.728C77.3923 355.74 76.4614 355.753 75.4713 355.753L75.9244 353.326C76.3163 351.227 76.6967 349.19 77.1136 346.956C76.3503 346.876 75.6005 346.791 74.8597 346.706C73.1759 346.514 71.5342 346.327 69.8919 346.227C68.1336 346.12 67.2664 347.012 66.0773 348.236C65.9395 348.377 65.7975 348.523 65.6492 348.673C64.9936 349.334 64.3809 350.086 63.7591 350.85C61.6267 353.47 59.3882 356.22 54.9483 355.844C51.4173 355.545 47.8537 355.617 44.2901 355.689C42.7195 355.721 41.1489 355.753 39.5811 355.753C39.5475 355.635 39.5138 355.517 39.4801 355.399L39.4384 355.253C39.3843 355.064 39.3302 354.874 39.2763 354.685C39.7411 354.068 40.1836 353.429 40.6261 352.79C41.5871 351.401 42.5481 350.013 43.7366 348.847C49.457 343.234 55.2488 337.689 61.0407 332.145C63.3126 329.97 65.5893 327.79 67.8568 325.611C70.7833 322.8 73.7138 319.992 76.6444 317.185C84.2156 309.931 91.7871 302.678 99.2886 295.356C103.387 291.355 107.377 287.249 111.367 283.142C113.094 281.364 114.826 279.582 116.562 277.813C118.212 276.132 118.086 273.921 116.349 272.434C115.302 271.538 114.225 270.667 113.147 269.795C110.543 267.689 107.937 265.581 105.753 263.116C99.7572 256.347 96.0296 248.556 95.0619 239.351C94.2871 231.981 94.9544 225.088 97.7256 218.243C99.8531 212.987 104.066 209.756 108.517 206.688C113.866 203.004 119.837 200.743 126.23 199.534C130.184 198.786 133.815 198.883 137.51 201.265C141.529 203.855 145.719 206.19 149.91 208.525C152.314 209.864 154.718 211.204 157.091 212.592C161.36 215.091 165.557 217.713 169.71 220.394C171.15 221.325 172.24 222.446 171.906 224.615C171.518 227.118 171.599 229.743 171.869 232.273C172.216 235.531 171.277 237.7 167.882 238.623C163.986 239.68 163.123 242.761 162.7 246.198C162.575 247.212 162.332 248.212 162.089 249.212C161.839 250.244 161.588 251.275 161.467 252.321C161.09 255.603 164 259.712 167.749 261.453C168.439 261.773 169.147 262.064 169.853 262.355C171.184 262.902 172.514 263.449 173.722 264.19C174.43 264.624 174.873 266.023 174.851 266.968C174.764 270.513 174.574 274.055 174.376 277.763C174.304 279.115 174.23 280.49 174.16 281.894C173.35 281.894 172.471 281.922 171.545 281.951C169.312 282.022 166.808 282.102 164.349 281.818C159.229 281.226 155.798 283.614 152.611 286.996C151.295 288.392 149.911 289.724 148.527 291.057C147.485 292.059 146.443 293.062 145.431 294.092C145.293 294.231 145.151 294.372 145.008 294.514C144.196 295.318 143.336 296.169 143.021 297.152C141.031 303.351 139.182 309.597 137.417 315.861C136.572 318.856 135.777 321.863 134.983 324.871C134.034 328.461 133.084 332.054 132.052 335.62C131.408 337.843 129.631 337.567 128.014 337.316C127.62 337.255 127.235 337.195 126.878 337.173C123.638 336.974 120.406 336.638 117.012 336.285C115.626 336.141 114.213 335.994 112.762 335.852C112.065 337.51 111.384 339.153 110.709 340.78ZM257.529 194.063C258.771 194.04 260.015 194.018 261.261 194.018C261.237 193.542 261.205 193.097 261.175 192.672C261.113 191.8 261.057 191.014 261.085 190.232C261.119 189.298 261.135 188.362 261.15 187.425C261.194 184.803 261.238 182.178 261.68 179.621C261.726 179.36 261.769 179.098 261.813 178.836C262.335 175.686 262.856 172.547 266.55 170.51C268.974 169.175 270.469 165.895 269.365 162.557C268.989 161.422 268.588 160.295 268.186 159.168C267.652 157.667 267.118 156.167 266.645 154.65C265.242 150.148 264.896 145.592 267.314 141.35C267.725 140.63 268.499 140.128 269.285 139.618C269.913 139.211 270.548 138.8 271.009 138.269C274.15 134.662 273.752 129.495 270.208 125.451C266.039 120.695 266.085 113.969 270.43 109.749C275.738 104.594 272.355 95.4964 266.665 93.7381C261.849 92.2492 260.458 85.9693 263.984 82.3265C264.302 81.9979 264.634 81.6815 264.966 81.3652C265.41 80.9418 265.854 80.5184 266.265 80.0656C268.489 77.613 268.54 73.5178 266.244 69.8561C264.725 67.4363 262.115 66.1236 259.502 66.837C253.947 68.3535 252.315 66.8455 251.039 60.8247C250.168 56.7069 249.099 52.7171 245.775 49.7705C244.501 48.6414 243.168 47.5747 241.829 46.5027C241.211 46.0086 240.592 45.5133 239.977 45.0103C238.842 45.8982 237.707 46.7709 236.577 47.6394C233.98 49.6362 231.411 51.611 228.94 53.6982C225.99 56.1887 225.744 60.0507 228.477 61.5603C233.717 64.459 235.787 69.5943 237.75 74.4609C237.804 74.5964 237.859 74.7317 237.913 74.8667C241.677 84.1902 244.768 93.7917 245.946 103.854C246.202 106.041 246.491 108.225 246.779 110.409C247.407 115.158 248.034 119.905 248.324 124.674C248.536 128.166 248.296 131.683 248.055 135.2C247.949 136.748 247.843 138.295 247.776 139.841C247.709 141.373 247.622 142.905 247.535 144.438C247.348 147.745 247.16 151.051 247.174 154.356C247.186 157.281 247.313 160.207 247.439 163.133C247.595 166.741 247.75 170.348 247.693 173.953C247.649 176.775 247.327 179.591 247.005 182.41C246.769 184.478 246.532 186.547 246.406 188.62C246.392 188.845 246.372 189.08 246.352 189.32C246.185 191.318 245.985 193.698 248.989 193.94C251.816 194.168 254.666 194.116 257.529 194.063Z" stroke="white" stroke-width="2" stroke-miterlimit="10"/>
</svg>